<svg xmlns="http://www.w3.org/2000/svg" viewBox="0 0 152.47 170.2"><defs><style>.cls-1{fill:#c59158;}.cls-2{fill:#8d4c34;}</style></defs><title>icon_gyroid</title><g id="Layer_2" data-name="Layer 2"><g id="artwork"><path class="cls-1" d="M142.19,92.28,119,90.37l3-25.82-1.15-.18A42.16,42.16,0,1,0,39.71,48.55a26.56,26.56,0,0,0,.09,2.68L36,50.61,34.29,66.69H22.4V50.61A11.21,11.21,0,0,0,0,49.94v28a11.21,11.21,0,0,0,11.19,11.2H32L26.38,143l85,12.85,5.06-43.26,12.74,1.05-1.31,16a11.2,11.2,0,0,0,10.21,12.1h1a11.2,11.2,0,0,0,11.06-10.24l2.24-27.19A11.2,11.2,0,0,0,142.19,92.28Z"/><path class="cls-2" d="M22.6,136.77l-1.32,9.87a8.73,8.73,0,0,0,4.52,8.84c12.44,6.72,45.55,21.25,85,11.38a5.54,5.54,0,0,0,4.11-4.48l2.1-13.2a3.23,3.23,0,0,0-2.73-3.66,3.33,3.33,0,0,0-1.09,0c-13.4,2.72-53.62,8.52-85.33-11.21a3.45,3.45,0,0,0-4.76,1.06A3.33,3.33,0,0,0,22.6,136.77Z"/><circle class="cls-2" cx="89.79" cy="10.95" r="10.95"/><path class="cls-2" d="M127.28,48.71c-14.18,2.73-55,8.21-87.57-10.93a4.11,4.11,0,0,0-5.63,1.42,4.22,4.22,0,0,0-.54,1.5L32.2,50.4a7.67,7.67,0,0,0,4,7.82,121.17,121.17,0,0,0,13.08,6,15.69,15.69,0,0,0-2.35,6.59c-.88,6.87,2.56,13,7.67,13.61S64.6,80,65.43,73.11a16.88,16.88,0,0,0,0-3.76,130.91,130.91,0,0,0,14.28,2.78,16.14,16.14,0,0,0-1.16,6.14c0,6.92,4.26,12.51,9.41,12.48s9.29-5.67,9.24-12.6a16.11,16.11,0,0,0-.74-4.82,119.47,119.47,0,0,0,24.81-2.48A11,11,0,0,0,130,61.92l1.52-9.12a3.62,3.62,0,0,0-4.2-4.09Z"/><ellipse class="cls-2" cx="66.35" cy="105.74" rx="14.45" ry="13.59"/></g></g></svg>